<svg width="206" height="95" viewBox="0 0 206 95" fill="none" xmlns="http://www.w3.org/2000/svg">
<path d="M103.213 47.2338C101.052 47.2338 99.2959 46.6347 97.9451 45.4366C96.6484 44.2385 96 42.6319 96 40.6169C96 38.6019 96.6484 36.9953 97.9451 35.7972C99.2959 34.5991 101.052 34 103.213 34C105.374 34 107.103 34.5991 108.4 35.7972C109.751 36.9953 110.426 38.6019 110.426 40.6169C110.426 42.6319 109.751 44.2385 108.4 45.4366C107.103 46.6347 105.374 47.2338 103.213 47.2338ZM97.4588 56.9093C97.4588 53.7312 100.035 51.1549 103.213 51.1549C106.391 51.1549 108.968 53.7312 108.968 56.9093V86.2457C108.968 89.4237 106.391 92 103.213 92C100.035 92 97.4588 89.4237 97.4588 86.2457V56.9093Z" fill="#FFD7C4"/>
<path d="M118.225 62.1831C118.225 56.6826 118.117 53.0066 117.901 51.1549H127.951C128.221 53.17 128.356 55.539 128.356 58.262H128.518C129.275 55.8113 130.761 53.8779 132.976 52.462C135.245 51.046 137.947 50.338 141.081 50.338C143.998 50.338 146.484 50.9643 148.537 52.2169C150.644 53.415 152.022 55.0488 152.67 57.1183C153.751 55.0488 155.372 53.415 157.533 52.2169C159.748 50.9643 162.18 50.338 164.827 50.338C169.312 50.338 172.851 51.8084 175.444 54.7493C178.038 57.6357 179.335 61.6385 179.335 66.7577V92H167.907V68.1465C167.907 65.5324 167.34 63.4901 166.205 62.0197C165.07 60.4948 163.531 59.7324 161.585 59.7324C159.37 59.7324 157.614 60.4948 156.317 62.0197C155.075 63.4901 154.453 65.5596 154.453 68.2282V92H143.107V68.4732C143.107 65.7502 142.539 63.6263 141.405 62.1014C140.324 60.5221 138.811 59.7324 136.866 59.7324C134.651 59.7324 132.895 60.5221 131.598 62.1014C130.301 63.6263 129.653 65.7502 129.653 68.4732V92H118.225V62.1831Z" fill="#FFD7C4"/>
<path d="M194.787 47.2338C192.626 47.2338 190.87 46.6347 189.519 45.4366C188.222 44.2385 187.574 42.6319 187.574 40.6169C187.574 38.6019 188.222 36.9953 189.519 35.7972C190.87 34.5991 192.626 34 194.787 34C196.948 34 198.677 34.5991 199.974 35.7972C201.325 36.9953 202 38.6019 202 40.6169C202 42.6319 201.325 44.2385 199.974 45.4366C198.677 46.6347 196.948 47.2338 194.787 47.2338ZM189.032 56.9093C189.032 53.7312 191.609 51.1549 194.787 51.1549C197.965 51.1549 200.541 53.7312 200.541 56.9093V86.2457C200.541 89.4237 197.965 92 194.787 92C191.609 92 189.032 89.4237 189.032 86.2457V56.9093Z" fill="#FFD7C4"/>
<path d="M45.5586 55.3661C45.5586 51.9327 48.3419 49.1494 51.7752 49.1494C64.2085 49.1494 73.0926 51.6182 78.4274 56.5557C83.4977 61.2729 86.0329 68.7232 86.0329 78.9069V85.3207C86.0329 89.0097 83.0423 92.0003 79.3533 92.0003C66.6996 92.0003 57.9037 90.1046 52.9657 86.3133C48.0276 82.4778 45.5586 75.6006 45.5586 65.6814V55.3661Z" fill="#FFD7C4"/>
<path d="M45.5586 27.4674C45.5586 17.7245 48.0276 11.1779 52.9657 7.8274C57.6392 4.69735 66.435 3.13232 79.3533 3.13232C83.0423 3.13232 86.0329 6.12287 86.0329 9.8119V15.6305C86.0329 25.5938 83.4977 32.6915 78.4274 36.9237C73.2689 41.1558 64.3849 43.2719 51.7752 43.2719C48.3419 43.2719 45.5586 40.4886 45.5586 37.0553V27.4674Z" fill="#C4D7FF"/>
<path d="M0 23C0 11.9543 8.9543 3 20 3C31.0457 3 40 11.9543 40 23V72.8677C40 83.9134 31.0457 92.8677 20 92.8677C8.9543 92.8677 0 83.9134 0 72.8677V23Z" fill="#87A2FF"/>
</svg>
