<svg width="88" height="91" viewBox="0 0 88 91" fill="none" xmlns="http://www.w3.org/2000/svg">
<path d="M46.5586 53.3661C46.5586 49.9327 49.3419 47.1494 52.7752 47.1494C65.2085 47.1494 74.0926 49.6182 79.4274 54.5557C84.4977 59.2729 87.0329 66.7232 87.0329 76.9069V83.3207C87.0329 87.0097 84.0423 90.0003 80.3533 90.0003C67.6996 90.0003 58.9037 88.1046 53.9657 84.3133C49.0276 80.4778 46.5586 73.6006 46.5586 63.6814V53.3661Z" fill="#FFD7C4"/>
<path d="M46.5586 25.4674C46.5586 15.7245 49.0276 9.17788 53.9657 5.8274C58.6392 2.69735 67.435 1.13232 80.3533 1.13232C84.0423 1.13232 87.0329 4.12287 87.0329 7.8119V13.6305C87.0329 23.5938 84.4977 30.6915 79.4274 34.9237C74.2689 39.1558 65.3849 41.2719 52.7752 41.2719C49.3419 41.2719 46.5586 38.4886 46.5586 35.0553V25.4674Z" fill="#C4D7FF"/>
<path d="M1 21C1 9.95432 9.9543 1 21 1C32.0457 1 41 9.95431 41 21V70.8677C41 81.9134 32.0457 90.8677 21 90.8677C9.9543 90.8677 1 81.9134 1 70.8677V21Z" fill="#87A2FF"/>
</svg>
